<?xml version="1.0" encoding="UTF-8"?><svg xmlns="http://www.w3.org/2000/svg" height="768" stroke-width="10.0" viewBox="0 0 10240 7680" width="1024"><g id="main-container" stroke="none"><g fill-opacity="1" font-family="averta,arial,'arial bold'" font-weight="bold" id="background-container" stroke="none"><g fill="rgb(255,255,255)" fill-opacity="0" stroke="rgb(255,255,255)" stroke-opacity="0"><rect height="7680" stroke="none" width="10240" x="0" y="0"/></g><svg height="7680" viewBox="0 0 10240 7680" width="10240" x="0px" xmlns="http://www.w3.org/2000/svg" y="0px"><defs><filter filterUnits="objectBoundingBox" id="ISM_Shadow"><feGaussianBlur in="SourceAlpha" result="blur" stdDeviation="5"/><feOffset dx="0" dy="0" in="blur" result="offsetBlurredAlpha"/><feColorMatrix in="offsetBlurredAlpha" result="colorMatrix" values="1 0 0 0 0  0 1 0 0 0  0 0 1 0 0  0 0 0 0.5 0"/><feMerge><feMergeNode in="colorMatrix"/><feMergeNode in="SourceGraphic"/></feMerge></filter></defs><path d="M7051.79,7098.42L3216.96,7098.42L1200.14,5779.37L1200.14,474.617L9069.76,474.617L9069.77,5779.37L7051.79,7098.42Z" fill="#f6f6f6" fill-opacity="1.0" id="POCHE" stroke="#d4d4d4" stroke-opacity="1.0" stroke-width="3.0"/><path d="M6853.53,5931.3C5707.59,5931.3,4561.64,5931.3,3415.7,5931.3C3415.7,6253.69,3415.7,6576.09,3415.7,6898.49C4561.64,6898.49,5707.59,6898.49,6853.53,6898.49L6853.53,6898.49C6853.53,6576.09,6853.53,6253.69,6853.53,5931.3Z" fill="#262626" fill-opacity="1.0" id="STAGE"/><path d="M1399.8,674.85L8869.43,674.85L8869.43,5579.6L1399.8,5579.6L1399.8,674.85Z" fill="#ffffff" fill-opacity="1.0" id="GA0" stroke="#dddddd" stroke-opacity="1.0" stroke-width="20.0"/><text fill="#ffffff" fill-opacity="1.0" font-size="633.5" id="STAGE TEXT" text-align="left" x="4082.1" y="6638.91"><tspan text-anchor="start" x="4082.1">STAGE</tspan></text></svg></g><g id="section-map-outline-container"><g fill="rgb(114,114,114)" stroke="rgb(193,193,193)"><path d="M1399.8 674.85 L8869.4297 674.85 L8869.4297 5579.6001 L1399.8 5579.6001 L1399.8 674.85 Z" fill-rule="evenodd" stroke="none"/><path d="M1399.8 674.85 L8869.4297 674.85 L8869.4297 5579.6001 L1399.8 5579.6001 L1399.8 674.85 Z" fill="rgb(114,114,114)" fill-rule="evenodd" stroke="white"/><path d="M1399.8 674.85 L8869.4297 674.85 L8869.4297 5579.6001 L1399.8 5579.6001 L1399.8 674.85 Z" fill="rgb(114,114,114)" fill-rule="evenodd" stroke="none"/><path d="M1399.8 674.85 L8869.4297 674.85 L8869.4297 5579.6001 L1399.8 5579.6001 L1399.8 674.85 Z" fill="rgb(114,114,114)" fill-rule="evenodd" stroke="white"/></g></g><g font-family="averta,arial,'arial bold'" id="labels-container"><g fill="white" font-size="524px" stroke="white"><text fill="rgb(255,255,255)" stroke="none" x="2296" xml:space="preserve" y="3275">GENERAL ADMISSION</text></g><g fill="white" font-size="524px" stroke="white"><text fill="rgb(255,255,255)" stroke="none" x="2296" xml:space="preserve" y="3275">GENERAL ADMISSION</text></g></g></g></svg>